# xmcd CD database file
#
# Track frame offsets:
#	150
#	9166
#	24837
#	41082
#	52167
#	62234
#	73451
#	93095
#	106304
#	119580
#
# Disc length: 1825 seconds
#
# Revision: 0
# Processed by: cddbd v1.4PL0 Copyright (c) Steve Scherf et al.
# Submitted via: CDex 1.51
#
DISCID=86071f0a
DTITLE=Sin City Boys - Double Production
DYEAR=2000
DGENRE=Country
TTITLE0=Kitchen Party
TTITLE1=The Guns Of El Chupacabra
TTITLE2=You Wear My Ring
TTITLE3=Where's The Fire
TTITLE4=Heaven Only Knows
TTITLE5=Hello, Fool
TTITLE6=Wonderful Girl
TTITLE7=$ilver $poon
TTITLE8=I Ain't Goin' Country (Live)
TTITLE9=Back Underground (Live)
EXTD=YEAR: 2000
EXTT0=
EXTT1=
EXTT2=
EXTT3=
EXTT4=
EXTT5=
EXTT6=
EXTT7=
EXTT8=
EXTT9=
PLAYORDER=
